<svg width="457" height="45" viewBox="0 0 457 45" fill="none" xmlns="http://www.w3.org/2000/svg">
<path d="M15.3 27.2999H26.4L21 11.5799H20.88L15.3 27.2999ZM16.2 1.01986L25.86 1.01986L41.88 43.8599H32.1L28.86 34.3199H12.84L9.47999 43.8599H-1.46516e-05L16.2 1.01986ZM76.5342 38.9999C74.8542 41.1599 72.9942 42.6799 70.9542 43.5599C68.9142 44.3999 66.8542 44.8199 64.7742 44.8199C61.4942 44.8199 58.5342 44.2599 55.8942 43.1399C53.2942 41.9799 51.0942 40.3999 49.2942 38.3999C47.4942 36.3999 46.1142 34.0599 45.1542 31.3799C44.1942 28.6599 43.7142 25.7399 43.7142 22.6199C43.7142 19.4199 44.1942 16.4599 45.1542 13.7399C46.1142 10.9799 47.4942 8.57986 49.2942 6.53986C51.0942 4.49986 53.2942 2.89986 55.8942 1.73986C58.5342 0.579863 61.4942 -0.000137091 64.7742 -0.000137091C66.9742 -0.000137091 69.0942 0.339862 71.1342 1.01986C73.2142 1.65986 75.0742 2.61986 76.7142 3.89986C78.3942 5.17986 79.7742 6.75986 80.8542 8.63986C81.9342 10.5199 82.5942 12.6799 82.8342 15.1199L73.8342 15.1199C73.2742 12.7199 72.1942 10.9199 70.5942 9.71986C68.9942 8.51986 67.0542 7.91986 64.7742 7.91986C62.6542 7.91986 60.8542 8.33986 59.3742 9.17986C57.8942 9.97986 56.6942 11.0799 55.7742 12.4799C54.8542 13.8399 54.1742 15.3999 53.7342 17.1599C53.3342 18.9199 53.1342 20.7399 53.1342 22.6199C53.1342 24.4199 53.3342 26.1799 53.7342 27.8999C54.1742 29.5799 54.8542 31.0999 55.7742 32.4599C56.6942 33.8199 57.8942 34.9199 59.3742 35.7599C60.8542 36.5599 62.6542 36.9599 64.7742 36.9599C67.8942 36.9599 70.2942 36.1799 71.9742 34.6199C73.6942 33.0199 74.6942 30.7199 74.9742 27.7199H65.4942V20.6999H83.4942V43.8599H77.4942L76.5342 38.9999ZM91.1015 1.01986L123.142 1.01986V8.93986L100.522 8.93986V18.1199H121.282V25.4399H100.522V35.9399H123.622V43.8599H91.1015V1.01986ZM130.008 1.01986L139.368 1.01986L157.248 29.7599H157.368V1.01986L166.188 1.01986V43.8599H156.768L138.948 15.1799L138.828 15.1799V43.8599H130.008V1.01986ZM180.9 29.6399C180.9 31.0799 181.16 32.2999 181.68 33.2999C182.2 34.2999 182.88 35.1199 183.72 35.7599C184.6 36.3599 185.62 36.8199 186.78 37.1399C187.94 37.4199 189.14 37.5599 190.38 37.5599C191.22 37.5599 192.12 37.4999 193.08 37.3799C194.04 37.2199 194.94 36.9399 195.78 36.5399C196.62 36.1399 197.32 35.5999 197.88 34.9199C198.44 34.1999 198.72 33.2999 198.72 32.2199C198.72 31.0599 198.34 30.1199 197.58 29.3999C196.86 28.6799 195.9 28.0799 194.7 27.5999C193.5 27.1199 192.14 26.6999 190.62 26.3399C189.1 25.9799 187.56 25.5799 186 25.1399C184.4 24.7399 182.84 24.2599 181.32 23.6999C179.8 23.0999 178.44 22.3399 177.24 21.4199C176.04 20.4999 175.06 19.3599 174.3 17.9999C173.58 16.5999 173.22 14.9199 173.22 12.9599C173.22 10.7599 173.68 8.85986 174.6 7.25986C175.56 5.61986 176.8 4.25986 178.32 3.17986C179.84 2.09986 181.56 1.29986 183.48 0.77986C185.4 0.259862 187.32 -0.000137091 189.24 -0.000137091C191.48 -0.000137091 193.62 0.259862 195.66 0.77986C197.74 1.25986 199.58 2.05986 201.18 3.17986C202.78 4.29986 204.04 5.73986 204.96 7.49986C205.92 9.21986 206.4 11.3199 206.4 13.7999L197.28 13.7999C197.2 12.5199 196.92 11.4599 196.44 10.6199C196 9.77986 195.4 9.11986 194.64 8.63986C193.88 8.15986 193 7.81986 192 7.61986C191.04 7.41986 189.98 7.31986 188.82 7.31986C188.06 7.31986 187.3 7.39986 186.54 7.55986C185.78 7.71986 185.08 7.99986 184.44 8.39986C183.84 8.79986 183.34 9.29986 182.94 9.89986C182.54 10.4999 182.34 11.2599 182.34 12.1799C182.34 13.0199 182.5 13.6999 182.82 14.2199C183.14 14.7399 183.76 15.2199 184.68 15.6599C185.64 16.0999 186.94 16.5399 188.58 16.9799C190.26 17.4199 192.44 17.9799 195.12 18.6599C195.92 18.8199 197.02 19.1199 198.42 19.5599C199.86 19.9599 201.28 20.6199 202.68 21.5399C204.08 22.4599 205.28 23.6999 206.28 25.2599C207.32 26.7799 207.84 28.7399 207.84 31.1399C207.84 33.0999 207.46 34.9199 206.7 36.5999C205.94 38.2799 204.8 39.7399 203.28 40.9799C201.8 42.1799 199.94 43.1199 197.7 43.7999C195.5 44.4799 192.94 44.8199 190.02 44.8199C187.66 44.8199 185.36 44.5199 183.12 43.9199C180.92 43.3599 178.96 42.4599 177.24 41.2199C175.56 39.9799 174.22 38.3999 173.22 36.4799C172.22 34.5599 171.74 32.2799 171.78 29.6399H180.9ZM221.365 26.1599H235.885L228.745 6.17986H228.625L221.365 26.1599ZM225.625 1.01986L231.925 1.01986L248.665 43.8599H242.365L237.685 30.9599H219.565L214.765 43.8599H208.945L225.625 1.01986ZM284.932 38.5199C283.252 40.7599 281.172 42.3799 278.692 43.3799C276.212 44.3399 273.712 44.8199 271.192 44.8199C267.992 44.8199 265.132 44.2399 262.612 43.0799C260.092 41.8799 257.952 40.2799 256.192 38.2799C254.432 36.2799 253.092 33.9799 252.172 31.3799C251.252 28.7799 250.792 26.0799 250.792 23.2799C250.792 20.1599 251.212 17.1999 252.052 14.3999C252.932 11.5599 254.212 9.07986 255.892 6.95986C257.612 4.83986 259.732 3.15986 262.252 1.91986C264.812 0.639862 267.792 -0.000137091 271.192 -0.000137091C273.512 -0.000137091 275.692 0.279863 277.732 0.839863C279.812 1.35986 281.652 2.19986 283.252 3.35986C284.892 4.51986 286.252 5.99986 287.332 7.79986C288.452 9.55986 289.212 11.6999 289.612 14.2199H283.912C283.632 12.5799 283.112 11.1799 282.352 10.0199C281.592 8.81986 280.652 7.83986 279.532 7.07986C278.412 6.31986 277.132 5.75986 275.692 5.39986C274.292 4.99986 272.792 4.79986 271.192 4.79986C268.592 4.79986 266.352 5.31986 264.472 6.35986C262.632 7.39986 261.112 8.77986 259.912 10.4999C258.752 12.1799 257.892 14.1199 257.332 16.3199C256.772 18.4799 256.492 20.6999 256.492 22.9799C256.492 25.2199 256.812 27.3799 257.452 29.4599C258.092 31.4999 259.032 33.3199 260.272 34.9199C261.512 36.4799 263.032 37.7399 264.832 38.6999C266.672 39.6199 268.792 40.0799 271.192 40.0799C273.432 40.0799 275.412 39.7199 277.132 38.9999C278.852 38.2799 280.292 37.2999 281.452 36.0599C282.652 34.7799 283.552 33.2999 284.152 31.6199C284.752 29.8999 285.012 28.0599 284.932 26.0999L271.252 26.0999V21.2999L290.032 21.2999V43.8599H286.432L284.932 38.5199ZM298.419 1.01986L327.999 1.01986V5.81986L304.119 5.81986V19.4399H326.379V24.2399H304.119V39.0599L328.179 39.0599V43.8599L298.419 43.8599V1.01986ZM335.039 1.01986L341.099 1.01986L363.659 35.7599H363.779V1.01986L369.179 1.01986V43.8599H362.939L340.559 9.47986H340.439V43.8599H335.039V1.01986ZM408.519 13.9199C407.879 10.8799 406.459 8.59986 404.259 7.07986C402.099 5.55986 399.519 4.79986 396.519 4.79986C393.959 4.79986 391.759 5.27986 389.919 6.23986C388.119 7.19986 386.619 8.49986 385.419 10.1399C384.259 11.7399 383.399 13.5799 382.839 15.6599C382.279 17.7399 381.999 19.8999 381.999 22.1399C381.999 24.5799 382.279 26.8999 382.839 29.0999C383.399 31.2599 384.259 33.1599 385.419 34.7999C386.619 36.3999 388.139 37.6799 389.979 38.6399C391.819 39.5999 394.019 40.0799 396.579 40.0799C398.459 40.0799 400.119 39.7799 401.559 39.1799C403.039 38.5399 404.299 37.6799 405.339 36.5999C406.419 35.4799 407.259 34.1599 407.859 32.6399C408.459 31.1199 408.819 29.4799 408.939 27.7199H414.639C414.079 33.1199 412.219 37.3199 409.059 40.3199C405.899 43.3199 401.579 44.8199 396.099 44.8199C392.779 44.8199 389.879 44.2599 387.399 43.1399C384.919 41.9799 382.859 40.3999 381.219 38.3999C379.579 36.3999 378.339 34.0399 377.499 31.3199C376.699 28.5999 376.299 25.6799 376.299 22.5599C376.299 19.4399 376.739 16.5199 377.619 13.7999C378.499 11.0399 379.779 8.63986 381.459 6.59986C383.179 4.55986 385.299 2.95986 387.819 1.79986C390.379 0.599862 393.299 -0.000137091 396.579 -0.000137091C398.819 -0.000137091 400.939 0.299863 402.939 0.899862C404.939 1.49986 406.719 2.37986 408.279 3.53986C409.839 4.69986 411.139 6.15986 412.179 7.91986C413.219 9.63986 413.899 11.6399 414.219 13.9199H408.519ZM439.4 26.3399V43.8599H433.7V26.3399L417.14 1.01986L423.92 1.01986L436.76 21.4199L449.3 1.01986L455.78 1.01986L439.4 26.3399Z" fill="black"/>
</svg>
